<svg xmlns="http://www.w3.org/2000/svg" xmlns:xlink="http://www.w3.org/1999/xlink" viewBox="0 0 635.6 117.1"><defs><style>.cls-1{fill:url(#radial-gradient);}.cls-2{fill:url(#linear-gradient);}.cls-3{fill:#3c3c3b;}</style><radialGradient id="radial-gradient" cx="27.3" cy="59.11" r="45.52" gradientTransform="matrix(1, 0, 0, -1, 0, 117.42)" gradientUnits="userSpaceOnUse"><stop offset="0" stop-color="#357cc0"/><stop offset="1" stop-color="#00538c"/></radialGradient><linearGradient id="linear-gradient" x1="-132.24" y1="-10.75" x2="-42.63" y2="18.31" gradientTransform="matrix(1, 0.04, 0.04, -1, 132.62, 110.82)" gradientUnits="userSpaceOnUse"><stop offset="0" stop-color="#c6c6c6"/><stop offset="0.17" stop-color="#ccc" stop-opacity="0.89"/><stop offset="0.41" stop-color="#dadada" stop-opacity="0.75"/><stop offset="0.72" stop-color="#e7e7e7" stop-opacity="0.54"/><stop offset="1" stop-color="#f6f6f6" stop-opacity="0.35"/></linearGradient></defs><title>Asset 1</title><g id="Layer_2" data-name="Layer 2"><g id="Laag_1" data-name="Laag 1"><path class="cls-1" d="M38.7,42.3a41.32,41.32,0,0,0,7.5-6c.2-.8.4-1.6.7-2.5-.7.3-2.1.9-4.7,1.9,0,0,3.2-2.2,5.1-3.4A246.73,246.73,0,0,0,53.7,0s-17,14.1-34.6,42.6a46.16,46.16,0,0,0,1.6,9.7s-1.8-2-3-7.4q-3.3,5.55-6.6,11.7S7.8,61.4,5.9,96.2A253.78,253.78,0,0,1,33.7,36.8,508,508,0,0,0,.2,116.9L10.3,96.5c1-.6,14.5-10.8,22.4-23.8,4.3-7,8.9-20,12.8-33.8A34,34,0,0,1,38.7,42.3Z"/><path class="cls-2" d="M62.8,103.4a27.88,27.88,0,0,0,7.1,1.5c.6-.3,1.2-.5,1.8-.8-.6-.3-1.6-.8-3.4-1.8l4.5,1.3a180.84,180.84,0,0,0,22.1-12s-16.5-3.1-41.8.4a36.63,36.63,0,0,0-5,5.6s.3-2,2.9-5.3c-3.2.5-6.6,1.1-10.1,1.8,0,0-4.4.4-25.9,16.2A191.14,191.14,0,0,1,63.4,97.8,390.43,390.43,0,0,0,0,117.1l16.9-4c.9.3,13.4,3.3,24.9,1.6,6.2-.9,16.1-4.5,26.1-8.9A30.48,30.48,0,0,1,62.8,103.4Z"/><path class="cls-3" d="M89.3,82.4V37.1h30.3v8.6H99.5v9.5h17.9v8.6H99.5V82.5H89.3Z"/><path class="cls-3" d="M145.6,56.7c-.9-.2-1.9-.4-3.1-.7a15.29,15.29,0,0,0-3.8-.4c-.6,0-1.3.1-2.2.2a6.86,6.86,0,0,0-1.9.4V82.5h-9.7V49.9a48.71,48.71,0,0,1,6.2-1.7,38.4,38.4,0,0,1,7.9-.8,13.43,13.43,0,0,1,1.9.1l2.2.3a17,17,0,0,1,2.2.4,8.5,8.5,0,0,1,1.9.6Z"/><path class="cls-3" d="M150.1,65.5a22,22,0,0,1,1.4-8,16.55,16.55,0,0,1,3.7-5.7,15.8,15.8,0,0,1,5.3-3.5,16.17,16.17,0,0,1,6.1-1.2c4.9,0,8.7,1.5,11.6,4.5s4.2,7.4,4.2,13.2a12.75,12.75,0,0,1-.1,1.9c0,.7-.1,1.3-.1,1.8H160.1a6.69,6.69,0,0,0,2.8,4.8,11.31,11.31,0,0,0,6.7,1.8,31.68,31.68,0,0,0,5.3-.5,17.73,17.73,0,0,0,4.2-1.2l1.3,7.9a11.66,11.66,0,0,1-2.1.8,20.57,20.57,0,0,1-2.9.7c-1.1.2-2.2.4-3.4.5s-2.4.2-3.7.2a22.13,22.13,0,0,1-8.1-1.4,15.42,15.42,0,0,1-5.7-3.8,15.11,15.11,0,0,1-3.3-5.6A24.62,24.62,0,0,1,150.1,65.5ZM173,61.8a10,10,0,0,0-.4-2.4,5.29,5.29,0,0,0-1.1-2.1,5.75,5.75,0,0,0-1.9-1.5,6.83,6.83,0,0,0-5.6,0,7.49,7.49,0,0,0-2,1.5,7.19,7.19,0,0,0-1.2,2.1,10.55,10.55,0,0,0-.6,2.4Z"/><path class="cls-3" d="M188.3,65.5a22,22,0,0,1,1.4-8,16.55,16.55,0,0,1,3.7-5.7,15.8,15.8,0,0,1,5.3-3.5,16.17,16.17,0,0,1,6.1-1.2c4.9,0,8.7,1.5,11.6,4.5s4.2,7.4,4.2,13.2a12.75,12.75,0,0,1-.1,1.9c0,.7-.1,1.3-.1,1.8H198.3a6.69,6.69,0,0,0,2.8,4.8,11.31,11.31,0,0,0,6.7,1.8,31.68,31.68,0,0,0,5.3-.5,17.73,17.73,0,0,0,4.2-1.2l1.3,7.9a11.66,11.66,0,0,1-2.1.8,20.57,20.57,0,0,1-2.9.7c-1.1.2-2.2.4-3.4.5s-2.4.2-3.7.2a22.13,22.13,0,0,1-8.1-1.4,15.42,15.42,0,0,1-5.7-3.8,15.11,15.11,0,0,1-3.3-5.6A21.69,21.69,0,0,1,188.3,65.5Zm22.8-3.7a10,10,0,0,0-.4-2.4,5.29,5.29,0,0,0-1.1-2.1,5.75,5.75,0,0,0-1.9-1.5,6.83,6.83,0,0,0-5.6,0,7.49,7.49,0,0,0-2,1.5,7.19,7.19,0,0,0-1.2,2.1,10.55,10.55,0,0,0-.6,2.4Z"/><path class="cls-3" d="M241.8,83.1a22.21,22.21,0,0,1-6.9-.9,10.56,10.56,0,0,1-4.2-2.4,8.52,8.52,0,0,1-2.1-3.7,18.79,18.79,0,0,1-.6-4.9V33.4l9.7-1.6V69.2a16.59,16.59,0,0,0,.2,2.4,3.7,3.7,0,0,0,.8,1.8,4,4,0,0,0,1.6,1.2,9,9,0,0,0,2.8.6Z"/><path class="cls-3" d="M262,47.2a21.18,21.18,0,0,1,7.2,1,11.59,11.59,0,0,1,4.6,2.8,9.07,9.07,0,0,1,2.4,4.4,21,21,0,0,1,.7,5.8V81.4c-1.4.3-3.3.7-5.8,1.1a58,58,0,0,1-9,.6,27.71,27.71,0,0,1-6-.6,13.26,13.26,0,0,1-4.7-1.9,9.22,9.22,0,0,1-3-3.5,11.94,11.94,0,0,1-1-5.3,10.13,10.13,0,0,1,1.2-5.1,9.21,9.21,0,0,1,3.2-3.3,15.77,15.77,0,0,1,4.6-1.8,23.52,23.52,0,0,1,5.4-.6,32.81,32.81,0,0,1,3.4.2c1,.1,1.8.3,2.4.4v-.9a5.35,5.35,0,0,0-1.5-4c-1-1-2.7-1.5-5.2-1.5a26.29,26.29,0,0,0-4.9.4,21.61,21.61,0,0,0-4.2,1l-1.2-7.8q.9-.3,2.1-.6a20.16,20.16,0,0,1,2.8-.5,31.06,31.06,0,0,1,3.2-.4C259.8,47.2,260.9,47.2,262,47.2Zm.8,28.4a22.62,22.62,0,0,0,2.7-.1,10.61,10.61,0,0,0,2.1-.2V67.9a16.45,16.45,0,0,0-1.8-.3,17,17,0,0,0-2.2-.1,21.12,21.12,0,0,0-2.6.2,6.46,6.46,0,0,0-2.1.6,3.33,3.33,0,0,0-1.4,1.2,3.94,3.94,0,0,0-.5,2,3.46,3.46,0,0,0,1.5,3.2A8.86,8.86,0,0,0,262.8,75.6Z"/><path class="cls-3" d="M285.8,49.2a50.85,50.85,0,0,1,6.4-1.3,54.55,54.55,0,0,1,8.2-.6,22,22,0,0,1,7.3,1.1,11.18,11.18,0,0,1,4.6,3.2,12.94,12.94,0,0,1,2.4,5,25.09,25.09,0,0,1,.7,6.4V82.4h-9.7V64.2c0-3.1-.4-5.4-1.2-6.7s-2.4-2-4.6-2a17,17,0,0,0-2.2.1c-.8.1-1.5.1-2.1.2V82.3h-9.7V49.2Z"/><path class="cls-3" d="M322.6,65.2a20.19,20.19,0,0,1,1.2-7,16.55,16.55,0,0,1,3.5-5.7,17.55,17.55,0,0,1,5.6-3.9,17.76,17.76,0,0,1,7.4-1.4,25.65,25.65,0,0,1,5,.5,22.53,22.53,0,0,1,4.4,1.4l-2,7.8a21.33,21.33,0,0,0-3-.9,14,14,0,0,0-3.7-.4c-2.9,0-5,.9-6.4,2.7a11.11,11.11,0,0,0-2.1,7.1,11.63,11.63,0,0,0,2,7.2c1.3,1.7,3.6,2.5,7,2.5a26.36,26.36,0,0,0,3.8-.3,20,20,0,0,0,3.7-1l1.4,8a17.73,17.73,0,0,1-4.2,1.2,32.39,32.39,0,0,1-5.6.5,22.13,22.13,0,0,1-8.1-1.4,15,15,0,0,1-5.6-3.8,14.55,14.55,0,0,1-3.2-5.7A26,26,0,0,1,322.6,65.2Z"/><path class="cls-3" d="M353.6,65.5a22,22,0,0,1,1.4-8,16.55,16.55,0,0,1,3.7-5.7,15.8,15.8,0,0,1,5.3-3.5,16.17,16.17,0,0,1,6.1-1.2c4.9,0,8.7,1.5,11.6,4.5s4.2,7.4,4.2,13.2a12.75,12.75,0,0,1-.1,1.9c0,.7-.1,1.3-.1,1.8H363.6a6.69,6.69,0,0,0,2.8,4.8,11.31,11.31,0,0,0,6.7,1.8,31.68,31.68,0,0,0,5.3-.5,17.73,17.73,0,0,0,4.2-1.2l1.3,7.9a11.66,11.66,0,0,1-2.1.8,20.57,20.57,0,0,1-2.9.7c-1.1.2-2.2.4-3.4.5s-2.4.2-3.7.2a22.13,22.13,0,0,1-8.1-1.4,15.42,15.42,0,0,1-5.7-3.8,15.11,15.11,0,0,1-3.3-5.6A24.62,24.62,0,0,1,353.6,65.5Zm22.9-3.7a10,10,0,0,0-.4-2.4,5.29,5.29,0,0,0-1.1-2.1,5.75,5.75,0,0,0-1.9-1.5,6.83,6.83,0,0,0-5.6,0,7.49,7.49,0,0,0-2,1.5,7.19,7.19,0,0,0-1.2,2.1,10.55,10.55,0,0,0-.6,2.4Z"/><path class="cls-3" d="M414.1,56.7c-.9-.2-1.9-.4-3.1-.7a22.15,22.15,0,0,0-3.8-.4c-.6,0-1.3.1-2.2.2a6.86,6.86,0,0,0-1.9.4V82.5h-9.7V49.9a48.71,48.71,0,0,1,6.2-1.7,38.4,38.4,0,0,1,7.9-.8,13.43,13.43,0,0,1,1.9.1l2.2.3a17,17,0,0,1,2.2.4,8.5,8.5,0,0,1,1.9.6Z"/><path class="cls-3" d="M426.6,77.2a5.42,5.42,0,0,1-1.9,4.5,6.63,6.63,0,0,1-8.4,0,5.58,5.58,0,0,1-1.9-4.5,5.42,5.42,0,0,1,1.9-4.5,6.63,6.63,0,0,1,8.4,0A5.55,5.55,0,0,1,426.6,77.2Z"/><path class="cls-3" d="M429.5,65.2a20.19,20.19,0,0,1,1.2-7,16.55,16.55,0,0,1,3.5-5.7,18.27,18.27,0,0,1,5.5-3.9,17.76,17.76,0,0,1,7.4-1.4,25.65,25.65,0,0,1,5,.5,22.53,22.53,0,0,1,4.4,1.4l-2,7.8a21.33,21.33,0,0,0-3-.9,14,14,0,0,0-3.7-.4c-2.9,0-5,.9-6.4,2.7a11,11,0,0,0-2.1,7,11.63,11.63,0,0,0,2,7.2c1.3,1.7,3.6,2.5,6.9,2.5a26.36,26.36,0,0,0,3.8-.3,20,20,0,0,0,3.7-1l1.4,8a17.73,17.73,0,0,1-4.2,1.2,32.39,32.39,0,0,1-5.6.5,22.13,22.13,0,0,1-8.1-1.4,15,15,0,0,1-5.6-3.8,14.55,14.55,0,0,1-3.2-5.7A33.92,33.92,0,0,1,429.5,65.2Z"/><path class="cls-3" d="M494.2,65.2a21.67,21.67,0,0,1-1.2,7.4,15.58,15.58,0,0,1-8.7,9.4,17,17,0,0,1-6.9,1.3,17.31,17.31,0,0,1-6.9-1.3,15.35,15.35,0,0,1-5.3-3.7,18.22,18.22,0,0,1-3.5-5.7,21.67,21.67,0,0,1-1.2-7.4,19.5,19.5,0,0,1,1.3-7.4,16.55,16.55,0,0,1,3.5-5.7,16.35,16.35,0,0,1,5.3-3.7,18.17,18.17,0,0,1,13.5,0,15.35,15.35,0,0,1,5.3,3.7,18.22,18.22,0,0,1,3.5,5.7A19.5,19.5,0,0,1,494.2,65.2Zm-9.9,0a12.23,12.23,0,0,0-1.8-7.1,5.92,5.92,0,0,0-5.1-2.6,6.22,6.22,0,0,0-5.2,2.6,12.23,12.23,0,0,0-1.8,7.1,12.23,12.23,0,0,0,1.8,7.1,6.4,6.4,0,0,0,10.3,0A12.45,12.45,0,0,0,484.3,65.2Z"/><path class="cls-3" d="M520.6,64.2c0-3.1-.4-5.3-1.2-6.7a4.49,4.49,0,0,0-4.1-2,12.75,12.75,0,0,0-1.9.1c-.7.1-1.3.1-1.9.2V82.3h-9.7V49.2c.8-.2,1.8-.4,2.9-.7s2.3-.5,3.5-.7,2.5-.4,3.8-.5,2.6-.2,3.8-.2a16.48,16.48,0,0,1,6,.9,15.2,15.2,0,0,1,3.8,2.2,15.25,15.25,0,0,1,4.8-2.3,15.73,15.73,0,0,1,5-.8,18,18,0,0,1,6.7,1.1,9.83,9.83,0,0,1,4.2,3.2,12.7,12.7,0,0,1,2.2,5,31,31,0,0,1,.6,6.4V82.2h-9.7V64c0-3.1-.4-5.3-1.2-6.7a4.49,4.49,0,0,0-4.1-2,7.33,7.33,0,0,0-2.2.4,9.91,9.91,0,0,0-2.3,1,16.47,16.47,0,0,1,.6,3.2c.1,1.1.1,2.3.1,3.5V82.1h-9.7V64.2Z"/><path class="cls-3" d="M567.4,77.2a5.42,5.42,0,0,1-1.9,4.5,6.63,6.63,0,0,1-8.4,0,5.58,5.58,0,0,1-1.9-4.5,5.42,5.42,0,0,1,1.9-4.5,6.63,6.63,0,0,1,8.4,0A5.55,5.55,0,0,1,567.4,77.2Z"/><path class="cls-3" d="M605.8,65.2a21.67,21.67,0,0,1-1.2,7.4,16.55,16.55,0,0,1-3.5,5.7,14.24,14.24,0,0,1-5.6,3.6,22,22,0,0,1-7.6,1.3c-1.2,0-2.4-.1-3.7-.2s-2.5-.2-3.8-.4l-3.6-.6c-1.1-.2-2.1-.5-3-.7V33.4l9.7-1.6V48.9a19.3,19.3,0,0,1,3.4-1.1,15.29,15.29,0,0,1,3.8-.4,15.1,15.1,0,0,1,6.5,1.3,14,14,0,0,1,4.7,3.6,16.53,16.53,0,0,1,2.9,5.6A23.87,23.87,0,0,1,605.8,65.2Zm-9.9-.2c0-6.3-2.3-9.4-6.9-9.4a10.32,10.32,0,0,0-3,.4,9.12,9.12,0,0,0-2.4,1V74.7a9,9,0,0,0,1.8.2,17.72,17.72,0,0,0,2.4.1,7.15,7.15,0,0,0,6-2.7C595.3,70.4,595.9,68,595.9,65Z"/><path class="cls-3" d="M634,56.7c-.9-.2-1.9-.4-3.1-.7a22.15,22.15,0,0,0-3.8-.4c-.6,0-1.3.1-2.2.2a6.86,6.86,0,0,0-1.9.4V82.4h-9.7V49.9a48.71,48.71,0,0,1,6.2-1.7,38.4,38.4,0,0,1,7.9-.8,13.43,13.43,0,0,1,1.9.1l2.2.3a17,17,0,0,1,2.2.4,5.31,5.31,0,0,1,1.9.6Z"/></g></g></svg>